<?xml version="1.0" encoding="UTF-8" standalone="no"?>
<!-- Generator: Adobe Illustrator 19.0.0, SVG Export Plug-In . SVG Version: 6.00 Build 0)  -->

<svg
   xmlns:dc="http://purl.org/dc/elements/1.1/"
   xmlns:cc="http://creativecommons.org/ns#"
   xmlns:rdf="http://www.w3.org/1999/02/22-rdf-syntax-ns#"
   xmlns:svg="http://www.w3.org/2000/svg"
   xmlns="http://www.w3.org/2000/svg"
   xmlns:sodipodi="http://sodipodi.sourceforge.net/DTD/sodipodi-0.dtd"
   xmlns:inkscape="http://www.inkscape.org/namespaces/inkscape"
   version="1.1"
   id="Capa_1"
   x="0px"
   y="0px"
   viewBox="0 0 512 512"
   style="enable-background:new 0 0 512 512;"
   xml:space="preserve"
   inkscape:version="0.91 r13725"
   sodipodi:docname="UTT-logo.svg"><metadata
     id="metadata4322"><rdf:RDF><cc:Work
         rdf:about=""><dc:format>image/svg+xml</dc:format><dc:type
           rdf:resource="http://purl.org/dc/dcmitype/StillImage" /><dc:title></dc:title></cc:Work></rdf:RDF></metadata><defs
     id="defs4320" /><sodipodi:namedview
     pagecolor="#ffffff"
     bordercolor="#666666"
     borderopacity="1"
     objecttolerance="10"
     gridtolerance="10"
     guidetolerance="10"
     inkscape:pageopacity="0"
     inkscape:pageshadow="2"
     inkscape:window-width="1422"
     inkscape:window-height="747"
     id="namedview4318"
     showgrid="false"
     inkscape:zoom="0.79549513"
     inkscape:cx="228.83354"
     inkscape:cy="205.56993"
     inkscape:window-x="18"
     inkscape:window-y="0"
     inkscape:window-maximized="0"
     inkscape:current-layer="Capa_1" /><g
     id="g4250"
     transform="translate(12,-50)"><polygon
       style="fill:#4a2b03;fill-opacity:1"
       points="454.94,412.34 377.68,433.048 344.224,462.714 355.572,501.999 471.468,470.943 "
       id="polygon4252"
       transform="translate(-28,0)" /><polygon
       style="fill:#4a2b03;fill-opacity:1"
       points="57.059,412.34 41.031,470.943 156.926,501.999 167.775,462.714 134.319,433.048 "
       id="polygon4254" /></g><path
     style="fill:#8d551a;fill-opacity:1"
     d="m 487.975,216.788 0,123.705 -44.065,31.956 c -2.798,-9.055 -20.811,-76.719 -34.016,-126.005 l -0.01,0 -3.03,-11.309 C 402.175,217.637 390.726,202.729 375.048,193.67 367.539,189.341 360.99,183.651 355.7,176.982 l 0,-0.01 c -2.11,-10.029 3.85,-20.548 14.398,-23.377 8.309,-2.23 17.108,1.11 21.847,8.289 l 17.778,26.927 c 5.849,8.859 14.968,15.018 25.357,17.148 l 52.895,10.829 z"
     id="path4256"
     inkscape:connector-curvature="0" /><polygon
     style="fill:#eca400;fill-opacity:1"
     points="377.68,433.048 454.94,412.34 423.884,296.444 346.623,317.152 "
     id="polygon4258"
     transform="translate(-20,-50)" /><path
     style="fill:#4a2b03;fill-opacity:1"
     d="m 406.855,235.135 c -4.679,-17.498 -16.128,-32.406 -31.806,-41.465 -7.509,-4.329 -14.058,-10.019 -19.348,-16.688 l 0,-0.01 c -5.759,-7.249 -10.029,-15.658 -12.469,-24.757 l -13.378,-49.944 -38.635,10.349 13.388,49.944 c 4.679,17.498 2.23,36.136 -6.829,51.814 -7.659,13.268 -10.589,28.657 -8.479,43.675 l 43.325,9.099 77.261,-20.707 -3.03,-11.31 z"
     id="path4260"
     inkscape:connector-curvature="0" /><g
     id="g4262"
     transform="translate(-14,-50)"><path
       style="fill:#8d551a;fill-opacity:1"
       d="m 377.68,433.048 c -2.86,-10.669 -13.818,-16.998 -24.487,-14.138 10.555,-2.834 17.016,-13.675 14.138,-24.497 -2.86,-10.669 -13.828,-16.998 -24.497,-14.138 8.939,-2.4 14.828,-10.489 14.828,-19.318 0,-1.7 -0.22,-3.44 -0.68,-5.169 -2.86,-10.669 -13.828,-17.008 -24.497,-14.148 10.669,-2.86 16.998,-13.818 14.138,-24.487 -2.86,-10.669 -13.818,-16.998 -24.487,-14.138 l -18.838,5.039 -0.48,0.13 c -10.555,2.834 -17.016,13.675 -14.138,24.497 2.86,10.669 13.818,16.998 24.487,14.138 -10.529,2.827 -17.021,13.644 -14.138,24.487 2.86,10.669 13.828,17.008 24.487,14.148 -10.486,2.818 -17.033,13.599 -14.138,24.487 2.86,10.669 13.828,16.998 24.497,14.138 -10.555,2.834 -17.015,13.675 -14.138,24.497 2.85,10.669 13.818,16.998 24.487,14.138 l 19.318,-5.179 c 10.558,-2.823 17.014,-13.669 14.138,-24.487 z"
       id="path4264"
       inkscape:connector-curvature="0" /><rect
       x="191.9341"
       y="-277.2807"
       transform="matrix(0.25868943,0.96596055,-0.96596055,0.25868943,0,0)"
       style="fill:#eca400;fill-opacity:1"
       width="39.994633"
       height="39.994633"
       id="rect4266" /><rect
       x="57.922245"
       y="-263.04288"
       transform="matrix(-0.25868943,0.96596055,-0.96596055,-0.25868943,0,0)"
       style="fill:#eca400;fill-opacity:1"
       width="39.994633"
       height="39.994633"
       id="rect4268" /></g><path
     style="fill:#4a2b03;fill-opacity:1"
     d="m 212.221,214.378 c -9.059,-15.678 -11.509,-34.316 -6.829,-51.814 l 13.388,-49.944 -38.635,-10.349 -13.378,49.944 c -2.44,9.099 -6.709,17.508 -12.468,24.757 l 0,0.01 c -5.279,6.669 -11.829,12.359 -19.348,16.688 -15.678,9.059 -27.127,23.967 -31.806,41.465 l -3.03,11.309 77.261,20.707 43.325,-9.099 c 2.109,-15.017 -0.821,-30.406 -8.48,-43.674 z"
     id="path4270"
     inkscape:connector-curvature="0" /><path
     style="fill:#ffc27d;fill-opacity:1"
     d="m 217.18,258.183 -0.48,-0.13 -18.838,-5.039 c -10.669,-2.86 -21.627,3.47 -24.487,14.138 -2.872,10.799 3.559,21.646 14.138,24.487 -10.669,-2.86 -21.637,3.48 -24.487,14.148 -2.881,10.833 3.6,21.658 14.138,24.487 -12.721,-3.41 -25.187,6.209 -25.187,19.328 0,8.829 5.899,16.908 14.828,19.308 -10.659,-2.86 -21.627,3.47 -24.487,14.138 -2.877,10.819 3.58,21.664 14.138,24.487 l 19.318,5.179 c 10.669,2.86 21.637,-3.47 24.497,-14.138 2.851,-10.721 -3.524,-21.644 -14.148,-24.497 10.669,2.86 21.637,-3.47 24.497,-14.138 2.872,-10.799 -3.559,-21.646 -14.138,-24.487 10.669,2.86 21.627,-3.48 24.487,-14.148 2.88,-10.832 -3.599,-21.657 -14.138,-24.487 10.669,2.86 21.627,-3.47 24.487,-14.138 2.877,-10.819 -3.578,-21.664 -14.138,-24.498 z"
     id="path4272"
     inkscape:connector-curvature="0" /><polygon
     style="fill:#eca400;fill-opacity:1"
     points="165.375,317.152 88.115,296.444 57.059,412.34 134.319,433.048 "
     id="polygon4274"
     transform="translate(12,-50)" /><path
     style="fill:#ffc27d;fill-opacity:1"
     d="m 139.9,153.595 c 10.549,2.83 16.508,13.348 14.398,23.377 l 0,0.01 c -5.279,6.669 -11.829,12.359 -19.348,16.688 -15.678,9.059 -27.127,23.967 -31.806,41.465 l -3.03,11.309 -0.01,0 c -4.413,16.593 -16.266,60.603 -33.886,126.105 l -44.195,-32.056 0,-123.705 52.894,-10.829 c 10.389,-2.13 19.508,-8.289 25.357,-17.148 l 17.778,-26.927 c 4.74,-7.179 13.539,-10.518 21.848,-8.289 z"
     id="path4276"
     inkscape:connector-curvature="0" /><path
     d="m 410.068,183.302 -17.777,-26.926 c -7.124,-10.79 -20.299,-15.79 -32.782,-12.438 -5.478,1.47 -10.203,4.376 -13.875,8.206 -0.263,-0.832 -0.516,-1.669 -0.743,-2.516 -4.399,-16.423 -19.355,-72.255 -23.727,-88.579 -1.428,-5.333 -6.9,-8.501 -12.246,-7.071 l -38.635,10.349 c -5.333,1.429 -8.5,6.911 -7.07,12.246 0.027,0.1 23.695,88.42 23.736,88.575 4.025,15.051 1.955,30.758 -5.829,44.232 -7.394,12.808 -10.98,27.591 -10.399,42.331 -11.293,6.701 -17.255,20.177 -13.697,33.559 1.932,7.205 6.368,13.306 12.569,17.346 -3.244,6.396 -4.204,13.809 -2.22,21.278 1.931,7.206 6.369,13.308 12.572,17.352 -3.284,6.469 -4.189,13.893 -2.224,21.284 1.989,7.418 6.612,13.432 12.588,17.33 -3.243,6.383 -4.22,13.813 -2.232,21.295 3.418,12.794 14.529,21.294 26.805,22.171 l 9.084,31.447 c 1.517,5.25 6.95,8.289 12.194,6.883 L 452.056,430.6 c 2.58,-0.691 4.775,-2.386 6.099,-4.705 1.322,-2.32 1.662,-5.073 0.943,-7.645 l -11.688,-41.79 38.434,-27.874 c 2.594,-1.881 4.129,-4.89 4.129,-8.094 l 0,-123.704 c 0,-4.749 -3.341,-8.843 -7.993,-9.796 l -52.891,-10.828 c -7.852,-1.611 -14.607,-6.178 -19.021,-12.862 z m 10.629,171.968 -59.609,15.977 c -2.241,-3.256 -5.082,-6.001 -8.329,-8.119 3.295,-6.488 4.191,-13.917 2.229,-21.303 -1.932,-7.209 -6.373,-13.312 -12.58,-17.352 3.278,-6.465 4.184,-13.925 2.232,-21.274 -1.988,-7.412 -6.6,-13.431 -12.568,-17.332 1.796,-3.538 2.855,-7.333 3.155,-11.205 l 59.588,-15.971 c 2.427,9.057 25.275,94.314 25.882,96.579 z M 283.081,267.945 c 0.101,-0.018 19.544,-5.246 19.645,-5.274 5.323,-1.429 10.813,1.745 12.241,7.069 1.43,5.336 -1.728,10.809 -7.068,12.241 -10e-4,0 -0.003,0.001 -0.004,0.001 l -19.316,5.178 c -5.323,1.43 -10.812,-1.744 -12.234,-7.049 -1.436,-5.405 1.716,-10.616 6.736,-12.166 z m 10.673,38.532 c 10e-4,0 10e-4,0 0.002,-10e-4 0.001,0 0.003,-10e-4 0.004,-10e-4 l 19.314,-5.177 c 5.328,-1.431 10.822,1.748 12.246,7.059 1.446,5.431 -1.819,10.85 -7.078,12.26 -0.002,0 -0.003,10e-4 -0.005,0.002 l -19.313,5.178 c -5.341,1.434 -10.811,-1.766 -12.23,-7.06 -1.477,-5.55 1.891,-10.87 7.06,-12.26 z m 10.351,38.634 0,0 c 10e-4,0 10e-4,0 0.002,0 0,0 0,0 10e-4,0 l 19.315,-5.178 c 5.428,-1.455 10.847,1.834 12.246,7.049 1.482,5.573 -1.914,10.887 -7.067,12.271 -10e-4,0 -10e-4,0.001 -0.002,0.001 l -19.313,5.167 c -5.352,1.437 -10.825,-1.756 -12.245,-7.049 -1.474,-5.553 1.895,-10.872 7.063,-12.261 z m 25.927,-89.761 c -6.999,-10.171 -19.895,-15.368 -32.479,-11.997 l -6.803,1.82 c 0.531,-9.039 3.141,-17.919 7.686,-25.794 10.455,-18.095 13.235,-39.189 7.83,-59.406 l -10.8,-40.284 19.317,-5.174 10.792,40.287 c 5.29,19.735 18.271,37.029 36.472,47.523 13.488,7.793 23.131,20.362 27.151,35.395 l 0.442,1.652 -59.608,15.978 z m -25.598,-179.468 5.175,19.319 -19.319,5.174 -5.174,-19.319 19.318,-5.174 z m 2.966,320.125 c -1.479,-5.563 1.905,-10.885 7.06,-12.27 l 0.002,0 c 0,0 0.001,0 0.002,0 l 10e-4,0 19.317,-5.168 c 5.33,-1.429 10.81,1.753 12.238,7.059 1.47,5.542 -1.891,10.868 -7.067,12.251 l -19.316,5.179 c -5.338,1.431 -10.817,-1.735 -12.237,-7.051 z m 33.058,43.796 -5.798,-20.072 9.464,-2.538 c 12.342,-3.299 21.17,-14.065 22.147,-26.633 l 59.625,-15.981 c 0.19,0.948 0.521,1.876 0.996,2.759 l 10.226,36.563 -96.66,25.902 z m 129.518,-104.411 -28.309,20.53 -2.208,-7.895 c -0.003,-0.013 -0.009,-0.024 -0.012,-0.037 -19.689,-73.476 -11.352,-42.354 -30.933,-115.439 -5.398,-20.19 -18.349,-37.074 -36.472,-47.543 -5.581,-3.218 -10.532,-7.289 -14.749,-12.126 0.027,-4.042 2.507,-8.319 7.397,-9.631 4.154,-1.112 8.539,0.548 10.912,4.141 l 17.777,26.927 c 7.354,11.14 18.61,18.752 31.695,21.435 l 44.901,9.192 0,110.446 10e-4,0 z"
     id="path4278"
     inkscape:connector-curvature="0" /><path
     d="m 20.154,348.587 38.601,27.999 -11.373,41.728 c -1.456,5.341 1.711,10.854 7.06,12.288 l 115.896,31.056 c 5.281,1.417 10.758,-1.681 12.227,-6.997 l 8.655,-31.344 c 12.222,-0.917 23.286,-9.378 26.715,-22.172 1.859,-6.987 1.202,-14.498 -2.248,-21.286 5.978,-3.901 10.606,-9.921 12.596,-17.349 1.916,-7.203 1.131,-14.659 -2.239,-21.286 5.973,-3.902 10.597,-9.923 12.587,-17.349 1.974,-7.428 1.026,-14.851 -2.225,-21.259 6.2,-4.04 10.638,-10.143 12.572,-17.366 3.575,-13.448 -2.495,-26.897 -13.701,-33.544 0.58,-14.738 -3.007,-29.519 -10.402,-42.329 -7.782,-13.47 -9.853,-29.177 -5.828,-44.223 0.04,-0.151 23.479,-87.615 23.737,-88.581 0.687,-2.562 0.327,-5.291 -0.999,-7.587 -1.326,-2.297 -3.511,-3.973 -6.071,-4.658 L 197.079,53.979 c -5.337,-1.427 -10.817,1.738 -12.246,7.071 -2.178,8.131 -21.145,78.939 -23.726,88.576 -0.228,0.849 -0.481,1.686 -0.745,2.519 -3.673,-3.831 -8.396,-6.737 -13.873,-8.206 -12.48,-3.351 -25.661,1.647 -32.782,12.437 L 95.93,183.302 c -4.412,6.684 -11.168,11.252 -19.019,12.861 l -52.892,10.829 c -4.652,0.953 -7.993,5.046 -7.993,9.796 l 0,123.705 c -0.001,3.203 1.534,6.213 4.128,8.094 z m 91.03,-89.896 59.601,15.974 c 0.309,3.968 1.414,7.748 3.154,11.18 -6.207,4.045 -10.646,10.152 -12.574,17.374 -1.949,7.324 -1.07,14.76 2.224,21.256 -6.206,4.04 -10.647,10.144 -12.582,17.369 -1.968,7.402 -1.039,14.83 2.228,21.269 -3.326,2.167 -6.143,4.925 -8.339,8.129 L 85.301,355.27 c 0.457,-1.706 21.891,-81.685 25.883,-96.579 z m 54.954,-75.503 c 0.048,-0.061 0.088,-0.126 0.134,-0.188 0.054,-0.069 0.104,-0.14 0.157,-0.209 0.01,-0.014 0.021,-0.026 0.03,-0.04 6.517,-8.32 11.221,-17.716 13.964,-27.949 l 10.792,-40.286 19.316,5.174 -10.8,40.289 c -5.404,20.211 -2.624,41.305 7.829,59.396 4.546,7.876 7.157,16.759 7.688,25.798 l -6.799,-1.82 c -12.821,-3.437 -25.642,1.978 -32.5,11.991 l -59.591,-15.971 c 0.378,-0.783 4.321,-23.6 27.579,-37.038 8.588,-4.943 16.057,-11.385 22.201,-19.147 z m 42.825,174.164 c -1.43,5.334 -6.908,8.503 -12.251,7.069 -10e-4,0 -0.002,0 -0.002,-10e-4 l -0.001,0 -19.311,-5.167 c -5.179,-1.395 -8.54,-6.732 -7.072,-12.252 1.43,-5.333 6.907,-8.498 12.246,-7.07 l 0.001,0 c 0.002,0 0.004,0.001 0.006,0.001 l 19.312,5.178 c 5.177,1.39 8.54,6.723 7.072,12.242 z m 10.349,-38.636 c -1.429,5.33 -6.919,8.505 -12.241,7.079 -0.001,0 -0.003,-0.001 -0.004,-0.001 l -19.308,-5.177 -10e-4,0 c -5.179,-1.39 -8.541,-6.719 -7.071,-12.249 1.426,-5.331 6.898,-8.5 12.234,-7.072 l 0.001,0 c 0.002,0 0.004,0.001 0.006,0.001 l 19.313,5.177 c 5.176,1.391 8.541,6.724 7.071,12.242 z m 10.348,-38.624 c -1.429,5.334 -6.9,8.502 -12.24,7.068 -10e-4,0 -0.003,-0.001 -0.004,-0.001 l -19.309,-5.176 -0.001,0 c -5.168,-1.388 -8.543,-6.711 -7.072,-12.241 l 0,-0.001 0,-10e-4 c 1.42,-5.298 6.862,-8.509 12.245,-7.066 0.101,0.027 19.55,5.257 19.651,5.275 4.995,1.531 8.163,6.757 6.73,12.143 z M 165.929,439.773 69.318,413.884 79.493,376.55 c 0.276,-0.641 0.484,-1.3 0.618,-1.967 l 59.618,15.979 c 0.978,12.568 9.805,23.334 22.14,26.631 l 9.587,2.571 -5.527,20.009 z m 32.685,-43.785 c -1.431,5.337 -6.911,8.5 -12.25,7.069 l -19.325,-5.181 c -5.164,-1.381 -8.531,-6.705 -7.06,-12.249 1.43,-5.312 6.887,-8.494 12.242,-7.058 l 19.311,5.167 c 5.266,1.413 8.52,6.839 7.082,12.252 z m 2.952,-320.106 19.318,5.174 -5.174,19.319 -19.319,-5.174 5.175,-19.319 z M 36.023,224.947 80.926,215.755 c 13.083,-2.683 24.339,-10.295 31.692,-21.434 l 17.779,-26.928 c 2.371,-3.591 6.754,-5.256 10.912,-4.139 4.889,1.312 7.37,5.591 7.396,9.634 -4.21,4.833 -9.16,8.903 -14.758,12.127 -18.114,10.467 -31.063,27.35 -36.462,47.535 -63.81,238.13 -5.237,19.539 -33.11,123.411 l -28.352,-20.567 0,-110.447 z"
     id="path4280"
     inkscape:connector-curvature="0" /><g
     id="g4288" /><g
     id="g4290" /><g
     id="g4292" /><g
     id="g4294" /><g
     id="g4296" /><g
     id="g4298" /><g
     id="g4300" /><g
     id="g4302" /><g
     id="g4304" /><g
     id="g4306" /><g
     id="g4308" /><g
     id="g4310" /><g
     id="g4312" /><g
     id="g4314" /><g
     id="g4316" /></svg>